# xmcd CD Database Entry
#
# Track frame offsets:
# 150
# 16500
# 32725
# 37092
# 53477
# 61535
# 73525
# 84290
# 112800
# 133055
# 150175
# 163527
# 188200
# 195567
# 203082
# 208500
# 221122
# 230925
# 239587
# 248252
#
# Disc length: 3434 seconds
#
# Revision: 2
# Processed by: cddbd v1.4b42PL1 Copyright (c) Steve Scherf et al.
# Submitted via: tcd 2.0b
#
DISCID=000d6814
DTITLE=Coral Trovadores do Vale
DYEAR=1900
DGENRE=
TTITLE0=Boia, boiadeiro
TTITLE1=Beira-mar da Leonor
TTITLE2=Paulista das meninas de Salinas
TTITLE3=Tirana do Limoeiro
TTITLE4=Vilao
TTITLE5=Roda da Margarida
TTITLE6=Beira-mar dos canoeiros, da Lira
TTITLE7=Batuques do presépio
TTITLE8=Bendito de São José
TTITLE9=Incelências
TTITLE10=Roda de Valentino
TTITLE11=Galo cantou
TTITLE12=Oi, pescador
TTITLE13=Saudade Taperoá
TTITLE14=Você diz que eu estou doido
TTITLE15=Eu não sou daqui
TTITLE16=Dança da tecedeira
TTITLE17=Cadê meu dedo
TTITLE18=Côco da velha
TTITLE19=Roda da carambola
EXTD=
EXTT0=
EXTT1=
EXTT2=
EXTT3=
EXTT4=
EXTT5=
EXTT6=
EXTT7=
EXTT8=
EXTT9=
EXTT10=
EXTT11=
EXTT12=
EXTT13=
EXTT14=
EXTT15=
EXTT16=
EXTT17=
EXTT18=
EXTT19=
PLAYORDER=
